# xmcd
#
# Track frame offsets:
#	150
#	17913
#	32800
#	48159
#	65076
#	81569
#	95944
#	114391
#	133657
#	152983
#	167382
#	184554
#	204825
#	223124
#
# Disc length: 3186 seconds
# Revision: 0
# Processed by: cddbd v1.5.2PL0 Copyright (c) Steve Scherf et al.
# Submitted via: dBpowerAMP V12.0
#
DISCID=c50c700e
DTITLE=Ronnie Dunn - Peace, Love and Country Music
DYEAR=2014
DGENRE=Country
TTITLE0=Grown Damn Man
TTITLE1=Cadillac Bound
TTITLE2=Cowgirls Rock 'n' Roll
TTITLE3=Heart Letting Go
TTITLE4=You Should See You Now
TTITLE5=Country This
TTITLE6=I Wish I Still Smoked Cigarettes
TTITLE7=Let's Get The Beer Joint Rockin'
TTITLE8=You Don't Know Me
TTITLE9=Romeo and Juliet
TTITLE10=Kiss You There
TTITLE11=Thou Shalt Not
TTITLE12=They Still Play Country Music In Texas
TTITLE13=Peace, Love And Country Music
EXTD=
EXTT0=
EXTT1=
EXTT2=
EXTT3=
EXTT4=
EXTT5=
EXTT6=
EXTT7=
EXTT8=
EXTT9=
EXTT10=
EXTT11=
EXTT12=
EXTT13=
PLAYORDER=
